<svg width="48" height="48" viewBox="0 0 48 48" fill="none" xmlns="http://www.w3.org/2000/svg">
<g clip-path="url(#clip0_72_4099)">
<rect width="48" height="48" rx="24" fill="#6CFFB0"/>
<g clip-path="url(#clip1_72_4099)">
<path d="M28.0712 16.4592C28.0712 16.4592 39.5134 23.2059 35.4602 25.0282C30.8559 27.099 22.9962 24.2341 22.9962 24.2341L28.0712 16.4592Z" fill="#D6261D"/>
<path d="M21.5996 58.0191C21.5996 58.0191 -10.3305 72.7864 -15.6607 73.7922C-20.9925 74.8044 -24.2597 76.1784 -25.7968 73.5379C-27.51 73.3263 -27.6354 72.7898 -28.2218 71.3984C-29.6915 71.1715 -29.1359 68.8421 -26.6348 68.3828C-24.1403 67.9214 -16.3335 64.8887 -16.3335 64.8887C-16.3335 64.8887 -24.0869 63.8849 -24.152 62.4145C-24.2255 60.9491 -13.7872 60.2609 -13.7872 60.2609L16.586 45.5388L21.5996 58.0191Z" fill="#F8934F"/>
<path d="M11.5667 47.2644C11.9103 47.4459 12.2749 47.6844 12.6568 47.9935C16.2733 50.9329 15.9785 56.5321 14.7063 60.6359C12.5655 61.6374 10.0778 62.8001 7.45143 64.005C7.4697 63.6591 7.46445 63.3215 7.40943 62.9847C7.27337 62.1362 6.67687 61.447 6.55725 60.6177C6.28764 58.7457 7.92079 56.5458 8.29312 54.7179C8.707 52.6745 7.66671 51.1185 7.59525 49.2496L11.5667 47.2644Z" fill="#F77C2D"/>
<path d="M6.3648 47.0692L6.59194 47.7965L10.9024 61.6253L12.494 68.964L12.951 76.2807L54.4434 87.0772C54.4434 87.0772 53.2403 48.1036 32.1111 35.5876C31.8547 35.6502 31.5964 35.7196 31.3382 35.7888C27.5145 36.8053 23.422 38.4197 19.6795 40.1109L19.6624 40.1207C12.3383 43.4445 6.3648 47.0692 6.3648 47.0692Z" fill="#0064C8"/>
<path d="M30.0449 36.0178C30.0449 36.0178 23.5653 43.0898 21.0993 42.5006C18.6333 41.9114 18.8292 39.8455 18.8292 39.8455L30.0449 36.0178Z" fill="#0055A8"/>
<path d="M7.14367 47.5779L7.3683 48.3088C8.30997 47.8646 9.93307 47.0302 10.8451 46.9969C12.3668 46.9517 12.9302 47.2236 14.0566 45.9758C14.6921 45.2701 15.271 44.3689 16.1632 43.9475C17.2941 43.4162 18.4116 42.8811 19.4265 41.9436C20.1084 41.3078 20.2725 41.2067 20.3965 40.604L20.3796 40.614C13.0871 43.9427 7.14367 47.5779 7.14367 47.5779Z" fill="#0F70D1"/>
<path d="M31.815 35.1969C32.1875 36.452 33.2334 37.7647 34.0247 38.4641C36.1994 40.3927 38.5397 41.8281 40.1604 44.3632C41.9597 47.2006 41.8433 51.0778 43.1832 54.1621C43.7857 55.5519 44.7092 56.7298 45.2948 58.1295C46.352 60.6803 46.314 63.496 46.2572 66.2196C46.169 70.562 44.8425 73.9685 46.8662 77.9703C48.1064 80.4251 48.076 82.8579 47.9727 85.3218L54.5029 87.077C54.5029 87.077 53.4002 47.6823 32.5798 34.9883C32.3249 35.0579 32.0699 35.1273 31.815 35.1969Z" fill="#0F70D1"/>
<path d="M17.5479 42.7661C17.5479 42.7661 13.8652 46.7387 13.4371 57.8973" stroke="#1A1B16" stroke-width="0.571535" stroke-miterlimit="10" stroke-linecap="round" stroke-linejoin="round"/>
<path d="M31.9423 18.6282C31.9423 18.6282 31.9944 24.0803 28.9845 27.8736C28.1078 28.9751 26.2405 25.1784 26.2405 25.1784L25.3148 17.7007L31.9423 18.6282Z" fill="#1A1B16"/>
<path d="M15.055 19.5536C15.0666 20.1933 15.0787 20.8041 15.1045 21.3896C15.1039 21.4473 15.1098 21.5068 15.1157 21.5662L15.1171 21.5883C15.6214 32.7468 18.8906 33.9115 18.8906 33.9115C18.8906 33.9115 19.0057 34.4053 19.178 35.1458C19.5725 36.85 20.2414 39.8644 20.419 41.2141C22.248 42.0439 26.4534 39.4665 29.4154 37.3666C29.5314 37.2819 29.6457 37.204 29.7618 37.1193C31.4341 35.9181 32.4141 35.4282 32.4141 35.4282L30.5886 26.1076L30.5492 25.9019L30.5301 25.8099C31.0195 25.4853 31.8679 24.7288 32.0443 24.0599C32.3845 22.7695 31.7649 21.4824 30.7911 21.265C30.0684 21.1076 28.4373 21.6329 28.3495 23.2513C28.2312 25.3679 26.8828 24.7391 26.8298 22.0414C26.814 21.3356 26.7693 19.3996 26.7494 19.1194C26.3696 19.2202 15.7396 19.9106 15.055 19.5536Z" fill="#F8934F"/>
<path d="M14.8947 20.5122L14.9356 21.7005L14.9369 21.7227C15.4367 32.9252 18.6865 34.0963 18.6865 34.0963C18.6865 34.0963 18.8007 34.5924 18.9719 35.3363L21.3506 34.4912C21.0671 34.5887 20.5224 34.3684 20.2582 34.2824C19.5122 34.0367 18.8258 33.6183 18.2913 33.0302C16.7591 31.3215 16.2747 28.538 15.7923 26.3509C15.3878 24.4971 15.1093 22.6268 14.9068 20.7407C14.9111 20.6692 14.8954 20.5923 14.8947 20.5122Z" fill="#F9AF79"/>
<path d="M14.4781 19.5026C14.4861 19.7799 14.4959 20.0506 14.5057 20.3212C15.2104 20.5778 16.0484 20.6621 16.6445 20.6875C17.4517 20.7219 18.2263 20.459 19.0349 20.5997C19.6896 20.7099 20.3285 21.021 21.0182 20.9421C21.7528 20.86 22.3363 20.3176 23.107 20.3784C23.9001 20.4377 24.6129 20.9151 25.4147 20.9694C25.6169 20.9834 26.1183 20.8656 26.5127 20.6794C26.4929 20.1946 26.4783 19.6898 26.4582 19.346C26.2961 19.2076 26.1269 19.0958 25.9387 19.0005C23.7383 19.2052 15.1047 19.8037 14.4781 19.5026Z" fill="#F77C2D"/>
<path d="M30.2633 30.3477C30.2147 30.9873 30.0202 31.506 29.7754 32.0843C29.5715 32.5563 29.1543 33.3145 29.2011 33.8555C29.2454 34.3228 29.5941 34.7858 29.7363 35.2284C29.9328 35.8477 29.8563 36.4575 29.74 37.086C29.7331 37.1134 29.7262 37.1407 29.7241 37.1768C29.8376 37.0908 29.9493 37.0115 30.0628 36.9255C31.6978 35.7032 32.6562 35.2044 32.6562 35.2044L30.8532 25.7482C30.6366 25.74 30.4162 25.7745 30.2594 25.8927C29.9021 25.743 29.7412 27.3862 29.8003 27.7106C29.9691 28.5789 30.3298 29.4414 30.2633 30.3477Z" fill="#F77C2D"/>
<path d="M29.4232 23.8681C29.4232 23.8681 30.2609 24.2291 30.6313 23.5307C31.0018 22.8322 30.4711 22.2266 30.4711 22.2266C30.2654 22.3845 30.0795 22.5482 29.9128 22.7466C29.6443 23.0606 29.4493 23.4469 29.4232 23.8681Z" fill="#F77C2D"/>
<path d="M30.4701 22.2185C30.4701 22.2185 30.9981 22.8266 30.6304 23.5288C30.2627 24.231 29.4297 23.8689 29.4297 23.8689C29.4536 23.4525 29.6489 23.0573 29.9156 22.7415C30.1822 22.4258 30.5154 22.1807 30.8516 21.9512" stroke="#BF3028" stroke-width="0.571535" stroke-miterlimit="10" stroke-linecap="round" stroke-linejoin="round"/>
<path d="M30.9629 25.2576C30.9629 25.2576 30.4184 25.7671 29.5938 25.7116" stroke="#BF3028" stroke-width="0.571535" stroke-miterlimit="10" stroke-linecap="round" stroke-linejoin="round"/>
<path d="M26.4629 33.0283C26.4629 33.0283 22.1882 35.5897 18.9999 34.0472C19.2522 35.1785 19.5334 36.3104 19.5334 36.3104C19.5334 36.3104 24.0246 36.7101 26.4629 33.0283Z" fill="#BF3028"/>
<path d="M20.2515 27.329C20.4592 26.7884 19.3101 25.707 18.872 26.3695C18.4407 27.034 20.0006 27.9999 20.2515 27.329Z" fill="#F77C2D"/>
<path d="M22.2627 24.4811C22.2678 24.7797 22.373 24.9984 22.5947 24.997C22.8163 24.9956 22.99 24.7485 22.9853 24.4499C22.9802 24.1513 22.7974 23.9029 22.5757 23.9043C22.354 23.9057 22.2579 24.1824 22.2627 24.4811Z" fill="#1A1B16"/>
<path d="M16.9988 24.6679C17.0008 24.951 17.1013 25.161 17.3163 25.1577C17.5316 25.1544 17.6934 24.9256 17.6914 24.6425C17.6896 24.3593 17.5097 24.1265 17.301 24.1317C17.0926 24.1369 16.9903 24.3828 16.9988 24.6679Z" fill="#1A1B16"/>
<path d="M24.0781 22.7028C24.0781 22.7028 22.8006 22.2217 21.5775 22.5253" stroke="#1A1B16" stroke-width="0.571535" stroke-miterlimit="10" stroke-linecap="round" stroke-linejoin="round"/>
<path d="M18.0049 22.7633C18.0049 22.7633 16.9899 22.5323 15.9581 22.7868" stroke="#1A1B16" stroke-width="0.571535" stroke-miterlimit="10" stroke-linecap="round" stroke-linejoin="round"/>
<path d="M20.7271 30.2483C20.7141 30.025 20.9634 29.8193 21.2841 29.7885C21.6047 29.7579 21.8752 29.9138 21.8882 30.1371C21.9012 30.3604 21.6517 30.5663 21.3312 30.5971C21.0104 30.6277 20.7399 30.4715 20.7271 30.2483Z" fill="#F77C2D"/>
<path d="M22.2969 28.4131C21.4139 29.0893 20.3546 29.3399 19.2456 29.0783" stroke="#BF3028" stroke-width="0.571535" stroke-miterlimit="10" stroke-linecap="round" stroke-linejoin="round"/>
<path d="M19.735 23.1882L18.8549 26.4657C18.7938 26.684 18.8584 26.9243 19.0118 27.0871L19.7578 27.5122" stroke="#BF3028" stroke-width="0.571535" stroke-miterlimit="10" stroke-linecap="round" stroke-linejoin="round"/>
<path d="M21.3097 10.2169C21.3097 10.2169 21.4615 8.94964 20.9734 8.87357C20.4854 8.79751 20.4518 10.3409 20.4518 10.3409L21.3097 10.2169Z" fill="#BF3028"/>
<path d="M14.4332 19.4123C19.92 20.2032 27.4685 19.5683 30.3656 19.2674C31.1263 19.1912 31.5625 19.1357 31.5625 19.1357C31.5625 19.1357 32.4913 9.77624 21.5511 10.079C20.4697 10.1126 19.552 10.3045 18.7722 10.619C13.82 12.6195 14.4332 19.4123 14.4332 19.4123Z" fill="#F52A21"/>
<path d="M20.7737 19.6167C20.6604 19.5851 20.5954 19.4666 20.6285 19.352C20.6613 19.2374 20.7798 19.1701 20.8931 19.2016C21.0063 19.2332 21.0713 19.3517 21.0382 19.4663C21.0054 19.5809 20.8869 19.6483 20.7737 19.6167Z" fill="#FF8A74"/>
<path d="M19.303 19.6443C19.1897 19.6127 19.1247 19.4942 19.1578 19.3796C19.1906 19.265 19.3094 19.1976 19.4224 19.2292C19.5356 19.2608 19.6006 19.3793 19.5675 19.4939C19.5347 19.6085 19.4162 19.6758 19.303 19.6443Z" fill="#FF8A74"/>
<path d="M17.8323 19.6724C17.719 19.6408 17.654 19.5223 17.6871 19.4077C17.7199 19.2931 17.8384 19.2257 17.9517 19.2573C18.0649 19.2888 18.1299 19.4073 18.0968 19.522C18.0637 19.6366 17.9453 19.7039 17.8323 19.6724Z" fill="#FF8A74"/>
<path d="M18.5466 10.5441C18.5564 10.5609 18.5683 10.571 18.587 10.5828C19.2189 11.2264 20.2026 11.2916 21.0682 11.2558C22.5644 11.1883 23.5764 11.623 24.5018 12.7603C24.8834 13.2267 25.2951 13.8996 25.9066 14.1189C26.2984 14.2611 26.7445 14.1826 27.1461 14.2633C27.9084 14.4143 28.8297 14.7549 29.1316 15.5065C29.3146 15.9509 29.2414 16.5006 29.3121 16.9804C29.4204 17.7183 29.753 18.6482 30.4529 19.0746C31.2217 18.9929 31.6622 18.9343 31.6622 18.9343C31.6622 18.9343 32.4358 9.59679 21.3657 9.98154C20.2649 10.0216 19.3374 10.2264 18.5466 10.5441Z" fill="#F65852"/>
<path d="M22.7226 18.526C20.8509 18.7641 18.0918 18.8372 16.2292 18.5364C16.2292 18.5364 15.8635 14.9994 19.1186 14.9891C22.9317 14.9699 22.7226 18.526 22.7226 18.526Z" fill="#1A1B16"/>
<mask id="mask0_72_4099" style="mask-type:alpha" maskUnits="userSpaceOnUse" x="0" y="2" width="47" height="47">
<path d="M0.933517 25.4761C0.933517 12.9526 11.0858 2.80029 23.6093 2.80029C36.1328 2.80029 46.2852 12.9526 46.2852 25.4761C46.2852 37.9996 36.1328 48.1519 23.6093 48.1519C11.0858 48.1519 0.933517 37.9996 0.933517 25.4761Z" fill="#6CFFB0"/>
</mask>
<g mask="url(#mask0_72_4099)">
</g>
</g>
</g>
<defs>
<clipPath id="clip0_72_4099">
<rect width="48" height="48" rx="24" fill="white"/>
</clipPath>
<clipPath id="clip1_72_4099">
<rect width="45.4286" height="45.6569" fill="white" transform="matrix(-1 0 0 1 46.2852 2.57153)"/>
</clipPath>
</defs>
</svg>
