<svg width="171" height="60" viewBox="0 0 171 60" fill="none" xmlns="http://www.w3.org/2000/svg">
<g clip-path="url(#clip0_73_4809)" filter="url(#filter0_d_73_4809)">
<path d="M37.5996 23H43.5996C45.1729 23 46.3329 23.3333 47.0796 24C47.8263 24.6533 48.1996 25.5667 48.1996 26.74C48.1996 27.46 48.0196 28.08 47.6596 28.6C47.3129 29.1067 46.8329 29.4733 46.2196 29.7C47.0196 29.8867 47.6463 30.2667 48.0996 30.84C48.5663 31.4 48.7996 32.1333 48.7996 33.04C48.7996 33.64 48.7063 34.1867 48.5196 34.68C48.3329 35.16 48.0396 35.5733 47.6396 35.92C47.2529 36.2667 46.7463 36.5333 46.1196 36.72C45.4929 36.9067 44.7396 37 43.8596 37H37.5996V23ZM43.3196 34.72C44.2529 34.72 44.8996 34.56 45.2596 34.24C45.6196 33.92 45.7996 33.4467 45.7996 32.82C45.7996 32.1933 45.6196 31.7067 45.2596 31.36C44.8996 31 44.2463 30.82 43.2996 30.82H40.5996V34.72H43.3196ZM42.9996 28.78C43.8129 28.78 44.3796 28.62 44.6996 28.3C45.0329 27.98 45.1996 27.5467 45.1996 27C45.1996 26.44 45.0396 26.0133 44.7196 25.72C44.3996 25.4267 43.8329 25.28 43.0196 25.28H40.5996V28.78H42.9996Z" fill="#5A3DFF"/>
<path d="M53.1934 23H56.1934V28.56H62.1934V23H65.1934V37H62.1934V31.04H56.1934V37H53.1934V23Z" fill="#5A3DFF"/>
<path d="M70.3887 23H73.3887V32.3L79.4887 23H82.3887V37H79.3887V27.7L73.2687 37H70.3887V23Z" fill="#5A3DFF"/>
<path d="M87.584 23H90.584L94.844 30.88L99.084 23H101.984V37H98.984V28.1L95.684 34.2H93.884L90.584 28.1V37H87.584V23Z" fill="#5A3DFF"/>
<path d="M114.942 34.14H109.762L108.702 37H105.782L110.982 23H113.982L119.182 37H116.022L114.942 34.14ZM110.682 31.66H114.042L112.362 26.8L110.682 31.66Z" fill="#5A3DFF"/>
<path d="M122.99 23H125.99V28.56H131.99V23H134.99V37H131.99V31.04H125.99V37H122.99V23Z" fill="#5A3DFF"/>
<path d="M140.186 23H143.186V32.3L149.286 23H152.186V37H149.186V27.7L143.066 37H140.186V23Z" fill="#5A3DFF"/>
<path d="M157.381 23H167.181V25.48H160.401V28.6H166.581V31H160.401V34.52H167.181V37H157.381V23Z" fill="#5A3DFF"/>
<circle cx="16" cy="30" r="12" fill="#5A3DFF"/>
<circle cx="20.5886" cy="26.8234" r="3.17647" fill="white"/>
</g>
<defs>
<filter id="filter0_d_73_4809" x="0" y="0" width="171" height="68" filterUnits="userSpaceOnUse" color-interpolation-filters="sRGB">
<feFlood flood-opacity="0" result="BackgroundImageFix"/>
<feColorMatrix in="SourceAlpha" type="matrix" values="0 0 0 0 0 0 0 0 0 0 0 0 0 0 0 0 0 0 127 0" result="hardAlpha"/>
<feOffset dy="4"/>
<feGaussianBlur stdDeviation="2"/>
<feComposite in2="hardAlpha" operator="out"/>
<feColorMatrix type="matrix" values="0 0 0 0 0 0 0 0 0 0 0 0 0 0 0 0 0 0 0.25 0"/>
<feBlend mode="normal" in2="BackgroundImageFix" result="effect1_dropShadow_73_4809"/>
<feBlend mode="normal" in="SourceGraphic" in2="effect1_dropShadow_73_4809" result="shape"/>
</filter>
<clipPath id="clip0_73_4809">
<rect width="163" height="60" fill="white" transform="translate(4)"/>
</clipPath>
</defs>
</svg>
